<svg width="64" height="64" viewBox="0 0 2048 2048" xmlns="http://www.w3.org/2000/svg"><rect x="0" y="0" width="2048" height="2048" rx="8" fill="none"/><svg xmlns="http://www.w3.org/2000/svg" viewBox="0 0 2048 2048" fill="#ffffff" x="0" y="0" width="2048" height="2048"><path fill="#ffffff" d="M1920 128v1792H0V128h384V0h128v128h896V0h128v128h384zM128 256v256h1664V256h-256v128h-128V256H512v128H384V256H128zm1664 1536V640H128v1152h1664zm-440-768l-241 189l101 315l-252-197l-252 197l101-315l-241-189h302l90-280l90 280h302z"/></svg></svg>